<svg width="206" height="24" viewBox="0 0 206 24" fill="none" xmlns="http://www.w3.org/2000/svg">
<g clip-path="url(#clip0)">
<path d="M17.064 22L15.9771 18.4316H10.5117L9.4248 22H6L11.291 6.94727H15.1772L20.4888 22H17.064ZM15.2183 15.7656C14.2134 12.5322 13.646 10.7036 13.5161 10.2798C13.3931 9.85596 13.3042 9.521 13.2495 9.2749C13.0239 10.1499 12.3779 12.3135 11.3115 15.7656H15.2183ZM33.5367 13.5815H39.4839V21.354C38.5201 21.6685 37.6109 21.8872 36.7564 22.0103C35.9087 22.1401 35.0406 22.2051 34.1519 22.2051C31.8892 22.2051 30.1597 21.542 28.9634 20.2158C27.774 18.8828 27.1792 16.9722 27.1792 14.4839C27.1792 12.064 27.8697 10.1772 29.2505 8.82373C30.6382 7.47021 32.5591 6.79346 35.0132 6.79346C36.5513 6.79346 38.0347 7.10107 39.4634 7.71631L38.4073 10.2593C37.3135 9.7124 36.1753 9.43896 34.9927 9.43896C33.6187 9.43896 32.5181 9.90039 31.691 10.8232C30.8638 11.7461 30.4502 12.9868 30.4502 14.5454C30.4502 16.1724 30.7818 17.4165 31.4449 18.2778C32.1148 19.1323 33.0855 19.5596 34.357 19.5596C35.0201 19.5596 35.6934 19.4912 36.377 19.3545V16.2271H33.5367V13.5815ZM54.2135 13.5815H60.1607V21.354C59.1969 21.6685 58.2877 21.8872 57.4332 22.0103C56.5855 22.1401 55.7174 22.2051 54.8287 22.2051C52.566 22.2051 50.8365 21.542 49.6402 20.2158C48.4508 18.8828 47.856 16.9722 47.856 14.4839C47.856 12.064 48.5465 10.1772 49.9273 8.82373C51.315 7.47021 53.2359 6.79346 55.69 6.79346C57.2281 6.79346 58.7115 7.10107 60.1402 7.71631L59.0841 10.2593C57.9903 9.7124 56.8521 9.43896 55.6695 9.43896C54.2955 9.43896 53.1949 9.90039 52.3678 10.8232C51.5406 11.7461 51.127 12.9868 51.127 14.5454C51.127 16.1724 51.4586 17.4165 52.1217 18.2778C52.7916 19.1323 53.7623 19.5596 55.0338 19.5596C55.6969 19.5596 56.3702 19.4912 57.0538 19.3545V16.2271H54.2135V13.5815ZM72.378 13.6636H73.4034C74.4083 13.6636 75.15 13.4961 75.6285 13.1611C76.1071 12.8262 76.3463 12.2998 76.3463 11.582C76.3463 10.8711 76.1002 10.3652 75.608 10.0645C75.1227 9.76367 74.3673 9.61328 73.3419 9.61328H72.378V13.6636ZM72.378 16.2476V22H69.1993V7.00879H73.5675C75.6046 7.00879 77.1119 7.38135 78.0895 8.12646C79.067 8.86475 79.5558 9.98926 79.5558 11.5C79.5558 12.3818 79.3131 13.168 78.8278 13.8584C78.3424 14.542 77.6554 15.0786 76.7667 15.4683C79.0226 18.8384 80.4923 21.0156 81.1759 22H77.6486L74.0699 16.2476H72.378ZM97.1564 22H88.5226V7.00879H97.1564V9.61328H91.7013V12.9048H96.777V15.5093H91.7013V19.375H97.1564V22ZM111.445 13.5815H117.392V21.354C116.428 21.6685 115.519 21.8872 114.665 22.0103C113.817 22.1401 112.949 22.2051 112.06 22.2051C109.798 22.2051 108.068 21.542 106.872 20.2158C105.682 18.8828 105.088 16.9722 105.088 14.4839C105.088 12.064 105.778 10.1772 107.159 8.82373C108.547 7.47021 110.467 6.79346 112.922 6.79346C114.46 6.79346 115.943 7.10107 117.372 7.71631L116.316 10.2593C115.222 9.7124 114.084 9.43896 112.901 9.43896C111.527 9.43896 110.426 9.90039 109.599 10.8232C108.772 11.7461 108.359 12.9868 108.359 14.5454C108.359 16.1724 108.69 17.4165 109.353 18.2778C110.023 19.1323 110.994 19.5596 112.265 19.5596C112.928 19.5596 113.602 19.4912 114.285 19.3545V16.2271H111.445V13.5815ZM135.608 22L134.521 18.4316H129.056L127.969 22H124.544L129.835 6.94727H133.721L139.033 22H135.608ZM133.762 15.7656C132.758 12.5322 132.19 10.7036 132.06 10.2798C131.937 9.85596 131.848 9.521 131.794 9.2749C131.568 10.1499 130.922 12.3135 129.856 15.7656H133.762ZM152.173 22H148.994V9.6543H144.924V7.00879H156.244V9.6543H152.173V22ZM177.618 14.4839C177.618 16.9653 177.003 18.8726 175.772 20.2056C174.542 21.5386 172.778 22.2051 170.481 22.2051C168.184 22.2051 166.421 21.5386 165.19 20.2056C163.96 18.8726 163.345 16.9585 163.345 14.4634C163.345 11.9683 163.96 10.0645 165.19 8.75195C166.428 7.43262 168.198 6.77295 170.502 6.77295C172.805 6.77295 174.566 7.43604 175.783 8.76221C177.006 10.0884 177.618 11.9956 177.618 14.4839ZM166.677 14.4839C166.677 16.1587 166.995 17.4199 167.631 18.2676C168.266 19.1152 169.217 19.5391 170.481 19.5391C173.017 19.5391 174.285 17.854 174.285 14.4839C174.285 11.1069 173.024 9.41846 170.502 9.41846C169.237 9.41846 168.284 9.8457 167.641 10.7002C166.998 11.5479 166.677 12.8091 166.677 14.4839ZM189.364 13.6636H190.389C191.394 13.6636 192.136 13.4961 192.614 13.1611C193.093 12.8262 193.332 12.2998 193.332 11.582C193.332 10.8711 193.086 10.3652 192.594 10.0645C192.108 9.76367 191.353 9.61328 190.327 9.61328H189.364V13.6636ZM189.364 16.2476V22H186.185V7.00879H190.553C192.59 7.00879 194.098 7.38135 195.075 8.12646C196.053 8.86475 196.541 9.98926 196.541 11.5C196.541 12.3818 196.299 13.168 195.813 13.8584C195.328 14.542 194.641 15.0786 193.752 15.4683C196.008 18.8384 197.478 21.0156 198.161 22H194.634L191.056 16.2476H189.364Z" fill="white"/>
<path d="M82.248 5L81 1.72461H81.9346L82.5674 3.59082C82.6377 3.82715 82.6816 4.05078 82.6992 4.26172H82.7168C82.7266 4.07422 82.7705 3.85059 82.8486 3.59082L83.4785 1.72461H84.4131L83.165 5H82.248ZM85.7467 0.87793C85.7467 0.586914 85.9088 0.441406 86.233 0.441406C86.5572 0.441406 86.7193 0.586914 86.7193 0.87793C86.7193 1.0166 86.6783 1.125 86.5963 1.20312C86.5162 1.2793 86.3951 1.31738 86.233 1.31738C85.9088 1.31738 85.7467 1.1709 85.7467 0.87793ZM86.6783 5H85.7848V1.72461H86.6783V5ZM89.5559 5.05859C89.1711 5.05859 88.8684 4.90918 88.6477 4.61035C88.4289 4.31152 88.3195 3.89746 88.3195 3.36816C88.3195 2.83105 88.4309 2.41309 88.6535 2.11426C88.8781 1.81348 89.1867 1.66309 89.5793 1.66309C89.9914 1.66309 90.3059 1.82324 90.5227 2.14355H90.552C90.507 1.89941 90.4846 1.68164 90.4846 1.49023V0.441406H91.3811V5H90.6955L90.5227 4.5752H90.4846C90.2814 4.89746 89.9719 5.05859 89.5559 5.05859ZM89.8693 4.34668C90.0979 4.34668 90.2648 4.28027 90.3703 4.14746C90.4777 4.01465 90.5363 3.78906 90.5461 3.4707V3.37402C90.5461 3.02246 90.4914 2.77051 90.382 2.61816C90.2746 2.46582 90.0988 2.38965 89.8547 2.38965C89.6555 2.38965 89.5002 2.47461 89.3889 2.64453C89.2795 2.8125 89.2248 3.05762 89.2248 3.37988C89.2248 3.70215 89.2805 3.94434 89.3918 4.10645C89.5031 4.2666 89.6623 4.34668 89.8693 4.34668ZM94.5721 2.29883C94.3826 2.29883 94.2342 2.35938 94.1268 2.48047C94.0193 2.59961 93.9578 2.76953 93.9422 2.99023H95.1961C95.1922 2.76953 95.1346 2.59961 95.0232 2.48047C94.9119 2.35938 94.7615 2.29883 94.5721 2.29883ZM94.698 5.05859C94.1707 5.05859 93.7586 4.91309 93.4617 4.62207C93.1648 4.33105 93.0164 3.91895 93.0164 3.38574C93.0164 2.83691 93.1531 2.41309 93.4266 2.11426C93.702 1.81348 94.0818 1.66309 94.5662 1.66309C95.0291 1.66309 95.3895 1.79492 95.6473 2.05859C95.9051 2.32227 96.034 2.68652 96.034 3.15137V3.58496H93.9217C93.9314 3.83887 94.0066 4.03711 94.1473 4.17969C94.2879 4.32227 94.4852 4.39355 94.7391 4.39355C94.9363 4.39355 95.1229 4.37305 95.2986 4.33203C95.4744 4.29102 95.658 4.22559 95.8494 4.13574V4.82715C95.6932 4.90527 95.5262 4.96289 95.3484 5C95.1707 5.03906 94.9539 5.05859 94.698 5.05859ZM98.3725 3.35645C98.3725 3.68066 98.4252 3.92578 98.5307 4.0918C98.6381 4.25781 98.8119 4.34082 99.0521 4.34082C99.2904 4.34082 99.4613 4.25879 99.5648 4.09473C99.6703 3.92871 99.723 3.68262 99.723 3.35645C99.723 3.03223 99.6703 2.78906 99.5648 2.62695C99.4594 2.46484 99.2865 2.38379 99.0463 2.38379C98.808 2.38379 98.6361 2.46484 98.5307 2.62695C98.4252 2.78711 98.3725 3.03027 98.3725 3.35645ZM100.637 3.35645C100.637 3.88965 100.496 4.30664 100.215 4.60742C99.934 4.9082 99.5424 5.05859 99.0404 5.05859C98.726 5.05859 98.4486 4.99023 98.2084 4.85352C97.9682 4.71484 97.7836 4.5166 97.6547 4.25879C97.5258 4.00098 97.4613 3.7002 97.4613 3.35645C97.4613 2.82129 97.601 2.40527 97.8803 2.1084C98.1596 1.81152 98.5521 1.66309 99.058 1.66309C99.3725 1.66309 99.6498 1.73145 99.89 1.86816C100.13 2.00488 100.315 2.20117 100.444 2.45703C100.573 2.71289 100.637 3.0127 100.637 3.35645ZM107.585 1.72461V2.17871L107.072 2.31055C107.166 2.45703 107.212 2.62109 107.212 2.80273C107.212 3.1543 107.089 3.42871 106.843 3.62598C106.599 3.82129 106.259 3.91895 105.824 3.91895L105.663 3.91016L105.531 3.89551C105.439 3.96582 105.393 4.04395 105.393 4.12988C105.393 4.25879 105.557 4.32324 105.885 4.32324H106.442C106.801 4.32324 107.075 4.40039 107.262 4.55469C107.452 4.70898 107.546 4.93555 107.546 5.23438C107.546 5.61719 107.386 5.91406 107.066 6.125C106.748 6.33594 106.29 6.44141 105.692 6.44141C105.235 6.44141 104.885 6.36133 104.643 6.20117C104.403 6.04297 104.283 5.82031 104.283 5.5332C104.283 5.33594 104.344 5.1709 104.467 5.03809C104.59 4.90527 104.771 4.81055 105.009 4.75391C104.918 4.71484 104.837 4.65137 104.769 4.56348C104.701 4.47363 104.667 4.37891 104.667 4.2793C104.667 4.1543 104.703 4.05078 104.775 3.96875C104.847 3.88477 104.952 3.80273 105.088 3.72266C104.917 3.64844 104.78 3.5293 104.678 3.36523C104.579 3.20117 104.529 3.00781 104.529 2.78516C104.529 2.42773 104.645 2.15137 104.878 1.95605C105.11 1.76074 105.442 1.66309 105.874 1.66309C105.965 1.66309 106.074 1.67188 106.199 1.68945C106.326 1.70508 106.407 1.7168 106.442 1.72461H107.585ZM105.056 5.46289C105.056 5.58594 105.115 5.68262 105.232 5.75293C105.351 5.82324 105.517 5.8584 105.73 5.8584C106.05 5.8584 106.301 5.81445 106.483 5.72656C106.665 5.63867 106.755 5.51855 106.755 5.36621C106.755 5.24316 106.702 5.1582 106.594 5.11133C106.487 5.06445 106.321 5.04102 106.096 5.04102H105.633C105.469 5.04102 105.332 5.0791 105.22 5.15527C105.111 5.2334 105.056 5.33594 105.056 5.46289ZM105.381 2.79688C105.381 2.97461 105.421 3.11523 105.502 3.21875C105.584 3.32227 105.708 3.37402 105.874 3.37402C106.042 3.37402 106.165 3.32227 106.243 3.21875C106.321 3.11523 106.36 2.97461 106.36 2.79688C106.36 2.40234 106.198 2.20508 105.874 2.20508C105.546 2.20508 105.381 2.40234 105.381 2.79688ZM111.107 5L110.934 4.55469H110.91C110.76 4.74414 110.605 4.87598 110.445 4.9502C110.286 5.02246 110.079 5.05859 109.823 5.05859C109.509 5.05859 109.261 4.96875 109.079 4.78906C108.9 4.60938 108.81 4.35352 108.81 4.02148C108.81 3.67383 108.931 3.41797 109.173 3.25391C109.417 3.08789 109.784 2.99609 110.275 2.97852L110.843 2.96094V2.81738C110.843 2.48535 110.673 2.31934 110.333 2.31934C110.071 2.31934 109.764 2.39844 109.41 2.55664L109.114 1.95312C109.491 1.75586 109.909 1.65723 110.368 1.65723C110.808 1.65723 111.145 1.75293 111.379 1.94434C111.613 2.13574 111.731 2.42676 111.731 2.81738V5H111.107ZM110.843 3.48242L110.497 3.49414C110.237 3.50195 110.044 3.54883 109.917 3.63477C109.79 3.7207 109.727 3.85156 109.727 4.02734C109.727 4.2793 109.871 4.40527 110.16 4.40527C110.367 4.40527 110.532 4.3457 110.655 4.22656C110.78 4.10742 110.843 3.94922 110.843 3.75195V3.48242ZM116.486 5H115.593V3.08691C115.593 2.85059 115.553 2.67383 115.472 2.55664C115.394 2.4375 115.27 2.37793 115.1 2.37793C114.872 2.37793 114.706 2.46191 114.602 2.62988C114.499 2.79785 114.447 3.07422 114.447 3.45898V5H113.554V1.72461H114.236L114.356 2.14355H114.406C114.494 1.99316 114.621 1.87598 114.787 1.79199C114.953 1.70605 115.143 1.66309 115.358 1.66309C115.848 1.66309 116.18 1.82324 116.354 2.14355H116.433C116.521 1.99121 116.65 1.87305 116.82 1.78906C116.992 1.70508 117.185 1.66309 117.4 1.66309C117.771 1.66309 118.052 1.75879 118.241 1.9502C118.432 2.13965 118.528 2.44434 118.528 2.86426V5H117.632V3.08691C117.632 2.85059 117.592 2.67383 117.512 2.55664C117.433 2.4375 117.309 2.37793 117.139 2.37793C116.921 2.37793 116.757 2.45605 116.647 2.6123C116.54 2.76855 116.486 3.0166 116.486 3.35645V5ZM121.704 2.29883C121.515 2.29883 121.367 2.35938 121.259 2.48047C121.152 2.59961 121.09 2.76953 121.075 2.99023H122.329C122.325 2.76953 122.267 2.59961 122.156 2.48047C122.044 2.35938 121.894 2.29883 121.704 2.29883ZM121.83 5.05859C121.303 5.05859 120.891 4.91309 120.594 4.62207C120.297 4.33105 120.149 3.91895 120.149 3.38574C120.149 2.83691 120.286 2.41309 120.559 2.11426C120.834 1.81348 121.214 1.66309 121.699 1.66309C122.162 1.66309 122.522 1.79492 122.78 2.05859C123.037 2.32227 123.166 2.68652 123.166 3.15137V3.58496H121.054C121.064 3.83887 121.139 4.03711 121.28 4.17969C121.42 4.32227 121.618 4.39355 121.871 4.39355C122.069 4.39355 122.255 4.37305 122.431 4.33203C122.607 4.29102 122.79 4.22559 122.982 4.13574V4.82715C122.826 4.90527 122.659 4.96289 122.481 5C122.303 5.03906 122.086 5.05859 121.83 5.05859Z" fill="#60A5FA"/>
</g>
<defs>
<clipPath id="clip0">
<rect width="206" height="24" fill="white"/>
</clipPath>
</defs>
</svg>
